#Comment line ignore any data following # character 
#Hierarchical Translation and Rotation (.htr) file 
[Header]	
#Header keywords are followed by a single value 
FileType HTR		#Single word string
DataType HTRS		#Translation followed by rotation and scale data
FileVersion 1		#integer
NumSegments 84		#integer
NumFrames 2		#integer
DataFrameRate 30		#integer, data frame rate in this file
EulerRotationOrder ZYX
CalibrationUnits mm
RotationUnits Degrees
GlobalAxisofGravity Y
BoneLengthAxis Y
ScaleFactor 1.00
[SegmentNames&Hierarchy]
#CHILD	PARENT
MASTER GLOBAL
root MASTER
chest root
L_mid_tent01 root
R_mid_tent01 root
spine01 root
Bip01_Neck chest
L_humerus chest
R_humerus chest
weapon_bone chest
Bip01_Head Bip01_Neck
eye_left_bone Bip01_Head
eye_right_bone Bip01_Head
L_forearm L_humerus
L_front_hand L_forearm
L_weapon_bone L_forearm
L_front_hand01_01 L_front_hand
L_front_hand02_01 L_front_hand
L_front_hand03_01 L_front_hand
L_front_hand01_02 L_front_hand01_01
L_front_hand02_02 L_front_hand02_01
L_front_hand03_02 L_front_hand03_01
R_forearm R_humerus
R_front_hand R_forearm
R_weapon_bone R_forearm
R_front_hand01_01 R_front_hand
R_front_hand02_01 R_front_hand
R_front_hand03_01 R_front_hand
R_front_hand01_02 R_front_hand01_01
R_front_hand02_02 R_front_hand02_01
R_front_hand03_02 R_front_hand03_01
null_rope01_connect L_mid_tent01
Rope1_Seg01 null_rope01_connect
Rope1_Seg02 Rope1_Seg01
Rope1_Seg03 Rope1_Seg02
Rope1_Seg04 Rope1_Seg03
Rope1_Seg05 Rope1_Seg04
Rope1_Seg06 Rope1_Seg05
Rope1_Seg07 Rope1_Seg06
Rope1_Seg09 Rope1_Seg07
L_mid_hand01 Rope1_Seg09
L_mid_hand02 Rope1_Seg09
L_mid_hand03 Rope1_Seg09
null_rope02_connect R_mid_tent01
Rope2_Seg01 null_rope02_connect
Rope2_Seg02 Rope2_Seg01
Rope2_Seg03 Rope2_Seg02
Rope2_Seg04 Rope2_Seg03
Rope2_Seg05 Rope2_Seg04
Rope2_Seg06 Rope2_Seg05
Rope2_Seg07 Rope2_Seg06
Rope2_Seg09 Rope2_Seg07
R_mid_hand01 Rope2_Seg09
R_mid_hand02 Rope2_Seg09
R_mid_hand03 Rope2_Seg09
spine02 spine01
spine03 spine02
pelvis spine03
null_rope03_connect pelvis
null_rope04_connect pelvis
Rope3_Seg01 null_rope03_connect
Rope3_Seg02 Rope3_Seg01
Rope3_Seg03 Rope3_Seg02
Rope3_Seg04 Rope3_Seg03
Rope3_Seg05 Rope3_Seg04
Rope3_Seg06 Rope3_Seg05
Rope3_Seg07 Rope3_Seg06
Rope3_Seg08 Rope3_Seg07
Rope3_Seg09 Rope3_Seg08
R_rear_hand01 Rope3_Seg09
R_rear_hand02 Rope3_Seg09
R_rear_hand03 Rope3_Seg09
Rope4_Seg01 null_rope04_connect
Rope4_Seg02 Rope4_Seg01
Rope4_Seg03 Rope4_Seg02
Rope4_Seg04 Rope4_Seg03
Rope4_Seg05 Rope4_Seg04
Rope4_Seg06 Rope4_Seg05
Rope4_Seg07 Rope4_Seg06
Rope4_Seg08 Rope4_Seg07
Rope4_Seg09 Rope4_Seg08
L_rear_hand01 Rope4_Seg09
L_rear_hand02 Rope4_Seg09
L_rear_hand03 Rope4_Seg09
[BasePosition]
#SegmentName Tx, Ty, Tz, Rx, Ry, Rz, BoneLength
MASTER 0.000000 0.000000 0.000000 -90.000000 0.000000 0.000000 10.000000 
root 0.000000 0.000000 0.000000 0.000000 0.000000 0.000000 10.000000 
chest 0.000000 0.000000 0.000000 0.000000 0.000000 0.000000 10.000000 
L_mid_tent01 0.000000 0.000000 0.000000 0.000000 0.000000 0.000000 10.000000 
R_mid_tent01 0.000000 0.000000 0.000000 0.000000 0.000000 0.000000 10.000000 
spine01 0.000000 0.000000 0.000000 0.000000 0.000000 0.000000 10.000000 
Bip01_Neck 0.000000 0.000000 0.000000 0.000000 0.000000 0.000000 10.000000 
L_humerus 0.000000 0.000000 0.000000 0.000000 0.000000 0.000000 10.000000 
R_humerus 0.000000 0.000000 0.000000 0.000000 0.000000 0.000000 10.000000 
weapon_bone 0.000000 0.000000 0.000000 0.000000 0.000000 0.000000 10.000000 
Bip01_Head 0.000000 0.000000 0.000000 0.000000 0.000000 0.000000 10.000000 
eye_left_bone 0.000000 0.000000 0.000000 0.000000 0.000000 0.000000 10.000000 
eye_right_bone 0.000000 0.000000 0.000000 0.000000 0.000000 0.000000 10.000000 
L_forearm 0.000000 0.000000 0.000000 0.000000 0.000000 0.000000 10.000000 
L_front_hand 0.000000 0.000000 0.000000 0.000000 0.000000 0.000000 10.000000 
L_weapon_bone 0.000000 0.000000 0.000000 0.000000 0.000000 0.000000 10.000000 
L_front_hand01_01 0.000000 0.000000 0.000000 0.000000 0.000000 0.000000 10.000000 
L_front_hand02_01 0.000000 0.000000 0.000000 0.000000 0.000000 0.000000 10.000000 
L_front_hand03_01 0.000000 0.000000 0.000000 0.000000 0.000000 0.000000 10.000000 
L_front_hand01_02 0.000000 0.000000 0.000000 0.000000 0.000000 0.000000 10.000000 
L_front_hand02_02 0.000000 0.000000 0.000000 0.000000 0.000000 0.000000 10.000000 
L_front_hand03_02 0.000000 0.000000 0.000000 0.000000 0.000000 0.000000 10.000000 
R_forearm 0.000000 0.000000 0.000000 0.000000 0.000000 0.000000 10.000000 
R_front_hand 0.000000 0.000000 0.000000 0.000000 0.000000 0.000000 10.000000 
R_weapon_bone 0.000000 0.000000 0.000000 0.000000 0.000000 0.000000 10.000000 
R_front_hand01_01 0.000000 0.000000 0.000000 0.000000 0.000000 0.000000 10.000000 
R_front_hand02_01 0.000000 0.000000 0.000000 0.000000 0.000000 0.000000 10.000000 
R_front_hand03_01 0.000000 0.000000 0.000000 0.000000 0.000000 0.000000 10.000000 
R_front_hand01_02 0.000000 0.000000 0.000000 0.000000 0.000000 0.000000 10.000000 
R_front_hand02_02 0.000000 0.000000 0.000000 0.000000 0.000000 0.000000 10.000000 
R_front_hand03_02 0.000000 0.000000 0.000000 0.000000 0.000000 0.000000 10.000000 
null_rope01_connect 0.000000 0.000000 0.000000 0.000000 0.000000 0.000000 10.000000 
Rope1_Seg01 0.000000 0.000000 0.000000 0.000000 0.000000 0.000000 10.000000 
Rope1_Seg02 0.000000 0.000000 0.000000 0.000000 0.000000 0.000000 10.000000 
Rope1_Seg03 0.000000 0.000000 0.000000 0.000000 0.000000 0.000000 10.000000 
Rope1_Seg04 0.000000 0.000000 0.000000 0.000000 0.000000 0.000000 10.000000 
Rope1_Seg05 0.000000 0.000000 0.000000 0.000000 0.000000 0.000000 10.000000 
Rope1_Seg06 0.000000 0.000000 0.000000 0.000000 0.000000 0.000000 10.000000 
Rope1_Seg07 0.000000 0.000000 0.000000 0.000000 0.000000 0.000000 10.000000 
Rope1_Seg09 0.000000 0.000000 0.000000 0.000000 0.000000 0.000000 10.000000 
L_mid_hand01 0.000000 0.000000 0.000000 0.000000 0.000000 0.000000 10.000000 
L_mid_hand02 0.000000 0.000000 0.000000 0.000000 0.000000 0.000000 10.000000 
L_mid_hand03 0.000000 0.000000 0.000000 0.000000 0.000000 0.000000 10.000000 
null_rope02_connect 0.000000 0.000000 0.000000 0.000000 0.000000 0.000000 10.000000 
Rope2_Seg01 0.000000 0.000000 0.000000 0.000000 0.000000 0.000000 10.000000 
Rope2_Seg02 0.000000 0.000000 0.000000 0.000000 0.000000 0.000000 10.000000 
Rope2_Seg03 0.000000 0.000000 0.000000 0.000000 0.000000 0.000000 10.000000 
Rope2_Seg04 0.000000 0.000000 0.000000 0.000000 0.000000 0.000000 10.000000 
Rope2_Seg05 0.000000 0.000000 0.000000 0.000000 0.000000 0.000000 10.000000 
Rope2_Seg06 0.000000 0.000000 0.000000 0.000000 0.000000 0.000000 10.000000 
Rope2_Seg07 0.000000 0.000000 0.000000 0.000000 0.000000 0.000000 10.000000 
Rope2_Seg09 0.000000 0.000000 0.000000 0.000000 0.000000 0.000000 10.000000 
R_mid_hand01 0.000000 0.000000 0.000000 0.000000 0.000000 0.000000 10.000000 
R_mid_hand02 0.000000 0.000000 0.000000 0.000000 0.000000 0.000000 10.000000 
R_mid_hand03 0.000000 0.000000 0.000000 0.000000 0.000000 0.000000 10.000000 
spine02 0.000000 0.000000 0.000000 0.000000 0.000000 0.000000 10.000000 
spine03 0.000000 0.000000 0.000000 0.000000 0.000000 0.000000 10.000000 
pelvis 0.000000 0.000000 0.000000 0.000000 0.000000 0.000000 10.000000 
null_rope03_connect 0.000000 0.000000 0.000000 0.000000 0.000000 0.000000 10.000000 
null_rope04_connect 0.000000 0.000000 0.000000 0.000000 0.000000 0.000000 10.000000 
Rope3_Seg01 0.000000 0.000000 0.000000 0.000000 0.000000 0.000000 10.000000 
Rope3_Seg02 0.000000 0.000000 0.000000 0.000000 0.000000 0.000000 10.000000 
Rope3_Seg03 0.000000 0.000000 0.000000 0.000000 0.000000 0.000000 10.000000 
Rope3_Seg04 0.000000 0.000000 0.000000 0.000000 0.000000 0.000000 10.000000 
Rope3_Seg05 0.000000 0.000000 0.000000 0.000000 0.000000 0.000000 10.000000 
Rope3_Seg06 0.000000 0.000000 0.000000 0.000000 0.000000 0.000000 10.000000 
Rope3_Seg07 0.000000 0.000000 0.000000 0.000000 0.000000 0.000000 10.000000 
Rope3_Seg08 0.000000 0.000000 0.000000 0.000000 0.000000 0.000000 10.000000 
Rope3_Seg09 0.000000 0.000000 0.000000 0.000000 0.000000 0.000000 10.000000 
R_rear_hand01 0.000000 0.000000 0.000000 0.000000 0.000000 0.000000 10.000000 
R_rear_hand02 0.000000 0.000000 0.000000 0.000000 0.000000 0.000000 10.000000 
R_rear_hand03 0.000000 0.000000 0.000000 0.000000 0.000000 0.000000 10.000000 
Rope4_Seg01 0.000000 0.000000 0.000000 0.000000 0.000000 0.000000 10.000000 
Rope4_Seg02 0.000000 0.000000 0.000000 0.000000 0.000000 0.000000 10.000000 
Rope4_Seg03 0.000000 0.000000 0.000000 0.000000 0.000000 0.000000 10.000000 
Rope4_Seg04 0.000000 0.000000 0.000000 0.000000 0.000000 0.000000 10.000000 
Rope4_Seg05 0.000000 0.000000 0.000000 0.000000 0.000000 0.000000 10.000000 
Rope4_Seg06 0.000000 0.000000 0.000000 0.000000 0.000000 0.000000 10.000000 
Rope4_Seg07 0.000000 0.000000 0.000000 0.000000 0.000000 0.000000 10.000000 
Rope4_Seg08 0.000000 0.000000 0.000000 0.000000 0.000000 0.000000 10.000000 
Rope4_Seg09 0.000000 0.000000 0.000000 0.000000 0.000000 0.000000 10.000000 
L_rear_hand01 0.000000 0.000000 0.000000 0.000000 0.000000 0.000000 10.000000 
L_rear_hand02 0.000000 0.000000 0.000000 0.000000 0.000000 0.000000 10.000000 
L_rear_hand03 0.000000 0.000000 0.000000 0.000000 0.000000 0.000000 10.000000 
#Beginning of Data. Separated by tabs
#Fr	Tx	Ty	Tz	Rx	Ry	Rz	SF
[MASTER]
14 0.000000 0.000000 0.000000 0.001660 0.001660 0.001660 0.000000
15 0.000000 0.000000 0.000000 0.001660 0.001660 0.001660 0.000000
[root]
14 -86.033142 -62.822132 610.204224 -84.939575 -2.477498 -90.967941 619.433228
15 -68.153000 -62.822132 581.668152 -84.971771 -2.765251 -90.960060 589.007019
[chest]
14 -77.224297 39.314079 -53.827477 0.085761 0.738905 167.630188 102.012672
15 -77.586388 35.667339 -51.153316 0.516327 -0.336004 164.573929 99.541290
[L_mid_tent01]
14 27.088573 22.298374 -248.562775 2.485308 15.218420 97.590775 251.026810
15 27.122478 22.278952 -248.780640 1.331188 16.802326 96.807640 251.244476
[R_mid_tent01]
14 23.228794 24.509907 226.238495 161.583694 -14.978936 116.940300 228.744751
15 23.228794 24.509907 226.238495 159.389740 -15.276737 115.774345 228.744751
[spine01]
14 -0.361383 -0.195265 0.000000 -0.000001 -0.000007 22.052340 0.410763
15 -0.361383 -0.195265 0.000000 -0.000001 -0.000007 22.052340 0.410763
[Bip01_Neck]
14 165.484543 71.581718 0.000119 175.896118 1.177290 24.871183 180.302734
15 165.484543 71.581718 0.000119 175.896118 1.177290 24.871183 180.302734
[L_humerus]
14 -13.983130 -135.272980 -120.471481 -5.920711 10.939470 -102.010063 181.680161
15 -13.983130 -135.272980 -120.471481 -3.711993 7.945515 -92.247612 181.680161
[R_humerus]
14 -13.983309 -135.273102 125.287651 6.831537 -18.067022 -98.438934 184.909012
15 -13.983309 -135.273102 125.287651 3.439391 -14.005885 -87.756332 184.909012
[weapon_bone]
14 235.964890 -300.705902 0.000000 0.000000 -89.951546 -128.212341 382.234833
15 235.964890 -300.705902 0.000000 0.000000 -89.951546 -128.212341 382.234833
[Bip01_Head]
14 174.369476 128.557236 4.769959 5.328616 -1.946380 -27.724302 216.689713
15 174.531555 133.855667 4.401670 5.823017 -1.158368 -28.211317 219.995407
[eye_left_bone]
14 -24.626970 125.451866 -64.772606 0.000000 -90.000000 -99.840431 143.318359
15 -24.626970 125.451866 -64.772606 0.000000 -90.000000 -99.840431 143.318359
[eye_right_bone]
14 -24.626970 125.451866 64.327362 0.000000 -89.960434 80.159386 143.117676
15 -24.626970 125.451866 64.327362 0.000000 -89.960434 80.159386 143.117676
[L_forearm]
14 322.776093 0.000000 -0.000119 0.001096 -0.002076 -145.646027 322.776093
15 322.776093 0.000000 -0.000119 0.001119 -0.002063 -146.932785 322.776093
[L_front_hand]
14 241.149185 -0.042021 -3.300071 -170.382065 -2.414178 -15.346759 241.171753
15 241.149185 -0.042021 -3.300071 -171.927917 -2.790259 -9.902565 241.171753
[L_weapon_bone]
14 156.183838 0.000000 0.000000 0.000014 0.000007 0.000001 156.183838
15 156.183838 0.000000 0.000000 0.000014 0.000007 0.000001 156.183838
[L_front_hand01_01]
14 86.095154 20.947098 -0.655860 0.405212 -0.442648 -4.523970 88.609184
15 86.095154 20.947098 -0.655860 0.405432 -0.442446 -4.580891 88.609184
[L_front_hand02_01]
14 86.935165 -11.437475 24.513514 116.959015 3.540428 1.452147 91.046425
15 86.935165 -11.437475 24.513514 116.959297 3.591612 1.478835 91.046425
[L_front_hand03_01]
14 86.637497 -14.123976 -20.424902 -118.417419 -4.574105 -0.198719 90.126129
15 86.637497 -14.123976 -20.424902 -118.420181 -4.621562 -0.172155 90.126129
[L_front_hand01_02]
14 71.020905 -0.000179 0.000030 0.001534 0.001777 -8.378851 71.020905
15 71.020905 -0.000179 0.000030 0.001534 0.001777 -8.378850 71.020905
[L_front_hand02_02]
14 71.020927 -0.000119 0.000060 0.001534 0.001777 -8.378851 71.020927
15 71.020927 -0.000119 0.000060 0.001534 0.001777 -8.378850 71.020927
[L_front_hand03_02]
14 71.020905 -0.000060 0.000060 0.001534 0.001777 -8.378851 71.020905
15 71.020905 -0.000060 0.000060 0.001534 0.001777 -8.378850 71.020905
[R_forearm]
14 322.776428 -0.000060 0.000030 0.120780 0.173808 -146.720978 322.776428
15 322.776428 -0.000060 0.000030 0.114421 0.176287 -147.777710 322.776428
[R_front_hand]
14 238.847015 -0.006795 2.210259 -10.595416 2.595130 -19.854567 238.857239
15 238.847015 -0.006795 2.210259 -8.831187 2.938747 -13.733438 238.857239
[R_weapon_bone]
14 155.664093 0.002503 -0.000030 0.003487 0.001180 -90.988930 155.664078
15 155.664093 0.002503 -0.000030 0.003487 0.001180 -90.988930 155.664078
[R_front_hand01_01]
14 87.624611 14.231146 22.918642 -116.959885 3.436095 -1.291600 91.683487
15 87.624611 14.231146 22.918642 -116.960007 3.461689 -1.304942 91.683487
[R_front_hand02_01]
14 89.356956 14.367283 -19.491137 118.419960 -4.196934 0.643086 92.579636
15 89.356956 14.367283 -19.491137 118.419800 -4.222353 0.629441 92.579636
[R_front_hand03_01]
14 87.286232 -22.307278 -0.143439 -0.387830 -0.231696 4.162717 90.091743
15 87.286232 -22.307278 -0.143439 -0.387890 -0.231596 4.192410 90.091743
[R_front_hand01_02]
14 71.020905 0.000060 0.000119 0.001777 0.001534 8.377220 71.020905
15 71.020905 0.000060 0.000119 0.001777 0.001534 8.377220 71.020905
[R_front_hand02_02]
14 71.020844 -0.000030 -0.000119 0.001777 0.001534 8.377220 71.020836
15 71.020844 -0.000030 -0.000119 0.001777 0.001534 8.377220 71.020836
[R_front_hand03_02]
14 71.020905 0.000000 0.000030 0.001777 0.001534 8.377220 71.020905
15 71.020905 0.000000 0.000030 0.001777 0.001534 8.377220 71.020905
[null_rope01_connect]
14 328.732483 0.000000 -0.000238 -169.656708 -79.509972 164.767899 328.732483
15 328.732483 0.000000 -0.000238 -175.787109 -78.133675 171.874237 328.732483
[Rope1_Seg01]
14 -0.000030 0.000022 0.000086 134.155258 -38.080406 121.338081 0.000094
15 -0.000029 0.000020 0.000081 133.688339 -37.950024 121.983345 0.000089
[Rope1_Seg02]
14 139.999863 -0.000179 0.000000 -3.484950 -4.092644 -2.458489 139.999863
15 139.999863 -0.000179 0.000000 -3.081514 -3.738114 -2.140299 139.999863
[Rope1_Seg03]
14 139.999924 0.000060 -0.000060 -5.551636 -6.143031 -4.248440 139.999924
15 139.999924 0.000060 -0.000060 -4.858218 -5.556545 -3.604012 139.999924
[Rope1_Seg04]
14 139.999924 -0.000060 -0.000119 -9.830188 -10.683949 -8.399965 139.999924
15 139.999924 -0.000060 -0.000119 -8.559958 -9.428838 -6.975216 139.999924
[Rope1_Seg05]
14 139.999832 0.000119 -0.000060 -14.318941 -16.701729 -16.938002 139.999832
15 139.999832 0.000119 -0.000060 -14.738594 -17.230457 -14.402566 139.999832
[Rope1_Seg06]
14 139.999954 0.000119 -0.000060 -7.794050 -2.897147 -29.887806 139.999954
15 139.999954 0.000119 -0.000060 -9.317011 -5.675715 -28.601631 139.999954
[Rope1_Seg07]
14 139.999985 0.000060 0.000000 -0.618632 6.978209 -36.111271 139.999985
15 139.999985 0.000060 0.000000 -2.262227 8.008234 -39.783577 139.999985
[Rope1_Seg09]
14 121.602913 0.000119 -0.000089 -89.793175 -1.359789 0.847147 121.602913
15 121.602913 0.000119 -0.000089 -89.793175 -1.359789 0.847147 121.602913
[L_mid_hand01]
14 103.859421 1.038730 8.195221 106.595764 -29.786575 -8.954294 104.187431
15 103.859421 1.038730 8.195221 106.094620 -26.581039 -7.886327 104.187431
[L_mid_hand02]
14 105.572853 -4.139662 -10.864139 -141.764389 24.817537 -27.448631 106.211075
15 105.572853 -4.139662 -10.864139 -140.621033 22.727367 -24.608875 106.211075
[L_mid_hand03]
14 104.641464 17.579376 -3.913581 -16.367113 9.311132 32.745773 106.179977
15 104.641464 17.579376 -3.913581 -16.862873 8.352983 29.506203 106.179977
[null_rope02_connect]
14 328.732849 0.000179 -0.000119 -158.059982 62.147701 43.280235 328.732849
15 328.732849 0.000179 -0.000119 -153.874512 60.497139 45.550018 328.732849
[Rope2_Seg01]
14 0.000021 0.000003 0.000000 -67.775749 -41.562416 73.048965 0.000021
15 0.000015 -0.000006 0.000000 -68.179192 -42.911800 72.447563 0.000016
[Rope2_Seg02]
14 139.999741 -0.000060 -0.000119 4.240882 5.345754 5.319394 139.999756
15 139.999741 -0.000060 -0.000119 4.033175 4.916342 5.238800 139.999756
[Rope2_Seg03]
14 140.000107 0.000030 0.000000 6.048616 9.544905 8.320683 140.000107
15 140.000107 0.000030 0.000000 5.814878 8.686658 8.152215 140.000107
[Rope2_Seg04]
14 139.999802 0.000000 -0.000060 7.675497 18.764877 13.270219 139.999802
15 139.999802 0.000000 -0.000060 7.775669 17.169132 13.205471 139.999802
[Rope2_Seg05]
14 139.999985 -0.000060 0.000119 2.861822 21.465387 12.003435 139.999985
15 139.999985 -0.000060 0.000119 3.795028 21.114765 12.726122 139.999985
[Rope2_Seg06]
14 139.999893 -0.000030 -0.000119 -1.720173 16.585936 12.317341 139.999893
15 139.999893 -0.000030 -0.000119 -0.867738 16.614624 12.591676 139.999893
[Rope2_Seg07]
14 139.999893 0.000060 -0.000060 -7.379272 24.191168 25.614340 139.999893
15 139.999893 0.000060 -0.000060 -5.968907 26.012789 28.056654 139.999893
[Rope2_Seg09]
14 121.338966 0.000089 -0.000060 33.793236 -1.359788 -0.847141 121.338966
15 121.338966 0.000089 -0.000060 33.793236 -1.359788 -0.847141 121.338966
[R_mid_hand01]
14 104.680779 11.144459 -10.335981 -36.108089 33.179283 39.604931 105.778534
15 104.680779 11.144459 -10.335981 -38.552200 30.161760 34.959469 105.778534
[R_mid_hand02]
14 104.070427 2.443552 8.231699 69.674118 -44.433704 15.071972 104.424065
15 104.070427 2.443552 8.231699 71.177139 -39.741947 12.829238 104.424065
[R_mid_hand03]
14 106.028137 -11.221827 -5.996406 -170.359879 12.592409 -49.362122 106.788818
15 106.028137 -11.221827 -5.996406 -169.300079 11.713631 -44.354645 106.788818
[spine02]
14 129.756927 0.001550 0.000119 -0.168527 -4.265731 -5.537238 129.756927
15 129.756927 0.001550 0.000119 -0.182113 -4.240948 -5.336073 129.756927
[spine03]
14 78.647812 0.081327 -4.566873 0.272569 5.941183 -6.817604 78.780342
15 78.640686 0.082566 -4.636453 0.290109 5.712513 -6.538805 78.777283
[pelvis]
14 169.435242 0.051022 0.000000 0.032198 1.525854 -2.164440 169.435257
15 169.435242 0.051022 0.000000 0.030034 1.347651 -2.003706 169.435257
[null_rope03_connect]
14 -1.257226 -2.466202 137.391083 -36.972363 -83.314171 121.796928 137.418976
15 -1.257226 -2.466202 137.391083 -34.127258 -83.580353 118.601540 137.418976
[null_rope04_connect]
14 -1.259640 -2.480268 -137.844437 -36.972363 -83.314171 121.796928 137.872513
15 -1.259640 -2.480268 -137.844437 -34.127258 -83.580353 118.601540 137.872513
[Rope3_Seg01]
14 0.000000 0.000000 0.000000 -147.750427 -25.344942 -37.772587 0.000000
15 0.000000 0.000000 0.000000 -144.538696 -28.653030 -50.491680 0.000000
[Rope3_Seg02]
14 139.999924 -0.000119 0.000060 12.341733 -11.952981 11.736325 139.999924
15 139.999924 -0.000119 0.000060 7.438392 -11.294627 7.978880 139.999924
[Rope3_Seg03]
14 139.999924 -0.000119 0.000119 8.727794 -9.080853 13.789926 139.999924
15 139.999924 -0.000119 0.000119 7.546937 -12.339465 11.351438 139.999924
[Rope3_Seg04]
14 139.999924 0.000119 0.000000 4.178318 -4.750954 9.607891 139.999924
15 139.999924 0.000119 0.000000 5.144751 -9.540430 9.575101 139.999924
[Rope3_Seg05]
14 139.999924 -0.000238 0.000060 3.451108 -3.773038 16.470934 139.999924
15 139.999924 -0.000238 0.000060 3.636385 -6.477715 13.941701 139.999924
[Rope3_Seg06]
14 139.999893 -0.000119 -0.000060 -0.054971 -3.211516 28.007690 139.999893
15 139.999893 -0.000119 -0.000060 0.417628 -6.387698 27.556984 139.999893
[Rope3_Seg07]
14 139.999771 0.000060 -0.000119 -3.332443 -2.089415 17.469225 139.999771
15 139.999771 0.000060 -0.000119 -4.196545 -4.808211 21.385254 139.999771
[Rope3_Seg08]
14 139.999985 -0.000060 0.000000 -2.691321 -1.549301 8.729261 139.999985
15 139.999985 -0.000060 0.000000 -3.435564 -3.104282 10.220243 139.999985
[Rope3_Seg09]
14 90.185997 -0.000179 -0.000060 89.793228 -1.359877 -0.847183 90.185997
15 90.185997 -0.000179 -0.000060 89.793228 -1.359877 -0.847183 90.185997
[R_rear_hand01]
14 103.366196 -6.073594 -10.757982 -161.551193 16.666374 -30.088671 104.101845
15 103.366196 -6.073594 -10.757982 -161.551193 16.666374 -30.088671 104.101845
[R_rear_hand02]
14 100.509819 12.039542 -7.992327 -34.280552 19.289745 28.875523 101.543350
15 100.509819 12.039542 -7.992327 -34.280552 19.289745 28.875523 101.543350
[R_rear_hand03]
14 101.539970 5.215704 5.435467 83.366440 -30.933914 7.284830 101.819031
15 101.539970 5.215704 5.435467 83.366440 -30.933914 7.284830 101.819031
[Rope4_Seg01]
14 -0.000002 -0.000081 -0.000050 74.708412 -43.668396 -136.145599 0.000095
15 -0.000003 -0.000079 -0.000053 77.764000 -44.178429 -139.434723 0.000095
[Rope4_Seg02]
14 139.999985 0.000060 0.000119 -18.534300 14.440476 -21.693913 139.999985
15 139.999985 0.000060 0.000119 -16.462200 13.380708 -17.687849 139.999985
[Rope4_Seg03]
14 139.999924 0.000000 -0.000238 -11.434565 19.854279 -15.533260 139.999924
15 139.999924 0.000000 -0.000238 -13.034451 21.716051 -16.330698 139.999924
[Rope4_Seg04]
14 139.999985 0.000000 0.000119 -2.586219 11.411090 -5.822130 139.999985
15 139.999985 0.000000 0.000119 -2.904107 15.439360 -5.945893 139.999985
[Rope4_Seg05]
14 139.999802 -0.000060 -0.000119 -2.204028 12.540819 -10.630469 139.999802
15 139.999802 -0.000060 -0.000119 -1.028435 10.360010 -8.327590 139.999802
[Rope4_Seg06]
14 139.999924 0.000000 0.000060 -2.430358 24.250044 -24.392015 139.999924
15 139.999924 0.000000 0.000060 -1.445071 19.165260 -23.111500 139.999924
[Rope4_Seg07]
14 139.999802 0.000000 0.000000 3.228713 15.960394 -15.877738 139.999802
15 139.999802 0.000000 0.000000 2.090235 18.237341 -22.201601 139.999802
[Rope4_Seg08]
14 139.999924 0.000000 0.000119 1.388682 6.712574 -7.751175 139.999924
15 139.999924 0.000000 0.000119 1.310721 7.824701 -10.677480 139.999924
[Rope4_Seg09]
14 90.185791 0.000060 0.000060 -135.617828 2.228885 0.850567 90.185791
15 90.185791 0.000060 0.000060 -135.617828 2.228885 0.850567 90.185791
[L_rear_hand01]
14 101.696655 -8.392275 -7.654577 -35.091419 -17.604738 153.690720 102.329041
15 101.696655 -8.392275 -7.654577 -35.091671 -17.604593 153.690689 102.329041
[L_rear_hand02]
14 102.726799 -1.568258 5.773216 83.559303 27.992727 173.103378 102.900848
15 102.726799 -1.568258 5.773216 83.559250 27.992571 173.103226 102.900848
[L_rear_hand03]
14 104.552910 9.721220 -10.420293 -160.739273 -15.710067 -152.829208 105.519653
15 104.552910 9.721220 -10.420293 -160.739243 -15.710036 -152.829453 105.519653
